<svg width="1600" height="900" viewBox="0 0 1600 900" fill="none" xmlns="http://www.w3.org/2000/svg">
  <defs>
    <linearGradient id="bg" x1="130" y1="90" x2="1440" y2="820" gradientUnits="userSpaceOnUse">
      <stop stop-color="#081421"/>
      <stop offset="0.55" stop-color="#0D2235"/>
      <stop offset="1" stop-color="#12364A"/>
    </linearGradient>
    <linearGradient id="panel" x1="0" y1="0" x2="1" y2="1">
      <stop stop-color="#123A52" stop-opacity="0.92"/>
      <stop offset="1" stop-color="#0C2336" stop-opacity="0.98"/>
    </linearGradient>
    <linearGradient id="accent" x1="0" y1="0" x2="1" y2="1">
      <stop stop-color="#64F1C2"/>
      <stop offset="1" stop-color="#2EB6FF"/>
    </linearGradient>
    <filter id="blur" x="-40%" y="-40%" width="180%" height="180%">
      <feGaussianBlur stdDeviation="40"/>
    </filter>
  </defs>

  <rect width="1600" height="900" fill="url(#bg)"/>

  <circle cx="1360" cy="160" r="170" fill="#3CCCA8" fill-opacity="0.14" filter="url(#blur)"/>
  <circle cx="250" cy="760" r="210" fill="#2EB6FF" fill-opacity="0.12" filter="url(#blur)"/>

  <rect x="110" y="110" width="1380" height="680" rx="28" fill="#07131D" fill-opacity="0.58" stroke="#24506A" stroke-opacity="0.65" stroke-width="2"/>

  <rect x="160" y="160" width="520" height="270" rx="22" fill="url(#panel)" stroke="#2F6786" stroke-opacity="0.75" stroke-width="2"/>
  <rect x="710" y="160" width="340" height="270" rx="22" fill="url(#panel)" stroke="#2F6786" stroke-opacity="0.75" stroke-width="2"/>
  <rect x="1080" y="160" width="360" height="270" rx="22" fill="url(#panel)" stroke="#2F6786" stroke-opacity="0.75" stroke-width="2"/>
  <rect x="160" y="470" width="1280" height="270" rx="22" fill="url(#panel)" stroke="#2F6786" stroke-opacity="0.75" stroke-width="2"/>

  <circle cx="198" cy="196" r="7" fill="#FF6B6B"/>
  <circle cx="224" cy="196" r="7" fill="#FFD166"/>
  <circle cx="250" cy="196" r="7" fill="#5BE37D"/>

  <circle cx="748" cy="196" r="7" fill="#FF6B6B"/>
  <circle cx="774" cy="196" r="7" fill="#FFD166"/>
  <circle cx="800" cy="196" r="7" fill="#5BE37D"/>

  <circle cx="1118" cy="196" r="7" fill="#FF6B6B"/>
  <circle cx="1144" cy="196" r="7" fill="#FFD166"/>
  <circle cx="1170" cy="196" r="7" fill="#5BE37D"/>

  <rect x="200" y="240" width="136" height="16" rx="8" fill="#7EE8C8" fill-opacity="0.8"/>
  <rect x="200" y="276" width="248" height="12" rx="6" fill="#97B8C8" fill-opacity="0.55"/>
  <rect x="200" y="304" width="214" height="12" rx="6" fill="#97B8C8" fill-opacity="0.34"/>
  <rect x="200" y="352" width="440" height="2" fill="#235C78"/>
  <rect x="200" y="380" width="388" height="12" rx="6" fill="#2EB6FF" fill-opacity="0.65"/>

  <rect x="750" y="240" width="92" height="16" rx="8" fill="#7EE8C8" fill-opacity="0.8"/>
  <rect x="750" y="278" width="118" height="118" rx="18" fill="#0B1824" stroke="#24506A" stroke-width="2"/>
  <path d="M780 354L809 324L832 344L870 300L918 354" stroke="url(#accent)" stroke-width="8" stroke-linecap="round" stroke-linejoin="round"/>
  <circle cx="870" cy="300" r="10" fill="#64F1C2"/>
  <rect x="108" y="0" width="0" height="0" fill="none"/>

  <rect x="1120" y="240" width="120" height="16" rx="8" fill="#7EE8C8" fill-opacity="0.8"/>
  <rect x="1120" y="286" width="280" height="12" rx="6" fill="#A6C4D1" fill-opacity="0.52"/>
  <rect x="1120" y="318" width="250" height="12" rx="6" fill="#A6C4D1" fill-opacity="0.36"/>
  <rect x="1120" y="360" width="156" height="40" rx="12" fill="url(#accent)" fill-opacity="0.92"/>

  <rect x="208" y="520" width="170" height="18" rx="9" fill="#7EE8C8" fill-opacity="0.8"/>
  <rect x="208" y="566" width="1184" height="2" fill="#235C78"/>
  <rect x="208" y="602" width="260" height="12" rx="6" fill="#A6C4D1" fill-opacity="0.48"/>
  <rect x="208" y="632" width="184" height="12" rx="6" fill="#2EB6FF" fill-opacity="0.62"/>
  <rect x="208" y="662" width="318" height="12" rx="6" fill="#A6C4D1" fill-opacity="0.3"/>

  <rect x="620" y="594" width="220" height="104" rx="18" fill="#0B1824" stroke="#24506A" stroke-width="2"/>
  <rect x="690" y="622" width="78" height="10" rx="5" fill="#7EE8C8" fill-opacity="0.76"/>
  <path d="M654 666H804" stroke="#24506A" stroke-width="2"/>
  <path d="M654 686H782" stroke="#24506A" stroke-width="2"/>
  <path d="M654 646L686 670L730 636L792 674" stroke="url(#accent)" stroke-width="6" stroke-linecap="round" stroke-linejoin="round"/>

  <rect x="920" y="594" width="430" height="104" rx="18" fill="#0B1824" stroke="#24506A" stroke-width="2"/>
  <rect x="954" y="624" width="126" height="10" rx="5" fill="#7EE8C8" fill-opacity="0.76"/>
  <rect x="954" y="654" width="280" height="10" rx="5" fill="#A6C4D1" fill-opacity="0.45"/>
  <rect x="954" y="680" width="226" height="10" rx="5" fill="#A6C4D1" fill-opacity="0.28"/>
  <rect x="1264" y="626" width="50" height="50" rx="14" fill="url(#accent)" fill-opacity="0.9"/>

  <path d="M680 294H724" stroke="url(#accent)" stroke-width="4" stroke-linecap="round"/>
  <path d="M1050 294H1088" stroke="url(#accent)" stroke-width="4" stroke-linecap="round"/>
  <path d="M888 430L888 470" stroke="url(#accent)" stroke-width="3" stroke-linecap="round" stroke-dasharray="8 10"/>
  <path d="M495 430L495 470" stroke="url(#accent)" stroke-width="3" stroke-linecap="round" stroke-dasharray="8 10"/>
  <path d="M1260 430L1260 470" stroke="url(#accent)" stroke-width="3" stroke-linecap="round" stroke-dasharray="8 10"/>

  <text x="208" y="825" fill="#EAF7FF" font-family="Segoe UI, Arial, sans-serif" font-size="58" font-weight="700">HARNESS ENGINEERING</text>
  <text x="211" y="864" fill="#8FB5C8" font-family="Segoe UI, Arial, sans-serif" font-size="24" letter-spacing="2">MODEL · TOOLS · FEEDBACK · CONSTRAINTS</text>
</svg>
